# xmcd
#
# Track frame offsets: 
#        160
#        15575
#        33162
#        52680
#        67465
#        82005
#        109122
#        129740
#        147157
#        166177
#        189292
#        207642
#
# Disc length: 3076 seconds
#
# Revision: 0
# Processed by: cddbd v1.5.1PL0 Copyright (c) Steve Scherf et al.
# Submitted via: ExactAudioCopy v0.95a3
#
DISCID=a50c020c
DTITLE=Various Artist - Колыбельная Разбитых Сердец
DYEAR=1996
DGENRE=Ballad
TTITLE0=А-Студио - Нелюбимая
TTITLE1=Алёна Апина - Не Повезло
TTITLE2=Женя Белоусов - Слёзы
TTITLE3=Евгений Осин - Я Тебя Люблю
TTITLE4=Ольга Пальчикова - Не Оставляй Мне Обещаний
TTITLE5=Владимир Кузьмин - Я Не Забуду Тебя
TTITLE6=Роман Рябцев - Ветер
TTITLE7=Таня Буланова - Я Сведу Тебя С Ума
TTITLE8=Светлана Алмазова - Дождь
TTITLE9=Наташа Королёва - Янтарь
TTITLE10=Виктор Салтыков - Улетели Листья
TTITLE11=Светлана Лазарева - Зеркало
EXTD=
EXTT0=
EXTT1=
EXTT2=
EXTT3=
EXTT4=
EXTT5=
EXTT6=
EXTT7=
EXTT8=
EXTT9=
EXTT10=
EXTT11=
PLAYORDER=
